<?xml version="1.0" encoding="utf-8" ?>
<svg baseProfile="full" height="1024px" version="1.1" width="1024px" xmlns="http://www.w3.org/2000/svg" xmlns:ev="http://www.w3.org/2001/xml-events" xmlns:xlink="http://www.w3.org/1999/xlink"><defs><linearGradient id="bg_grad" x1="0%" x2="0%" y1="0%" y2="100%"><stop offset="0" stop-color="#2c2c2e" /><stop offset="1" stop-color="#1c1c1e" /></linearGradient><linearGradient id="body_grad" x1="0%" x2="0%" y1="0%" y2="100%"><stop offset="0" stop-color="#ffffff" /><stop offset="1" stop-color="#ced1d6" /></linearGradient><radialGradient cx="50%" cy="0%" id="light_grad" r="100%"><stop offset="0" stop-color="#ffffff" stop-opacity="0.8" /><stop offset="1" stop-color="#ffffff" stop-opacity="0.0" /></radialGradient><linearGradient id="wheel_grad" x1="0%" x2="100%" y1="0%" y2="0%"><stop offset="0" stop-color="#2c2c2e" /><stop offset="0.5" stop-color="#48484a" /><stop offset="1" stop-color="#2c2c2e" /></linearGradient><filter height="200%" id="drop_shadow" width="200%" x="-50%" y="-50%"><feOffset dx="0" dy="15" in="SourceAlpha" result="offsetOut" /><feGaussianBlur in="offsetOut" result="blurOut" stdDeviation="12" /><feBlend in="SourceGraphic" in2="blurOut" mode="normal" /></filter><filter height="500%" id="glow_filter" width="500%" x="-200%" y="-200%"><feGaussianBlur in="SourceGraphic" result="blur" stdDeviation="8" /><feBlend in="SourceGraphic" in2="blur" mode="normal" /></filter><linearGradient id="rim_stroke_grad" x1="0%" x2="0%" y1="0%" y2="100%"><stop offset="0" stop-color="#ffffff" stop-opacity="0.9" /><stop offset="0.5" stop-color="#ffffff" stop-opacity="0.2" /><stop offset="1" stop-color="#ffffff" stop-opacity="0.05" /></linearGradient></defs><rect fill="url(#bg_grad)" height="1024px" width="1024px" x="0" y="0" /><rect fill="url(#body_grad)" filter="url(#drop_shadow)" height="700" rx="200.0" ry="200.0" width="400" x="312.0" y="162.0" /><rect fill="url(#light_grad)" height="700" rx="200.0" ry="200.0" width="400" x="312.0" y="162.0" /><rect fill="none" height="700" rx="200.0" ry="200.0" stroke="url(#rim_stroke_grad)" stroke-width="4" width="400" x="312.0" y="162.0" /><rect fill="#98989d" height="114" opacity="0.4" rx="20.0" ry="20.0" width="40" x="492.0" y="272.0" /><rect fill="url(#wheel_grad)" height="110" rx="18.0" ry="18.0" width="36" x="494.0" y="274.0" /><circle cx="512" cy="572" fill="#34c759" filter="url(#glow_filter)" opacity="0.4" r="48" /><circle cx="512" cy="572" fill="#34c759" r="12" /><circle cx="509" cy="569" fill="#ffffff" opacity="0.9" r="3" /></svg>